<svg width="1200" height="760" viewBox="0 0 1200 760" fill="none" xmlns="http://www.w3.org/2000/svg">
  <defs>
    <linearGradient id="g1" x1="200" y1="90" x2="940" y2="690" gradientUnits="userSpaceOnUse">
      <stop stop-color="#ffffff"/>
      <stop offset="0.22" stop-color="#dfeaf2"/>
      <stop offset="0.5" stop-color="#ffffff"/>
      <stop offset="0.74" stop-color="#b7c7d4"/>
      <stop offset="1" stop-color="#ffffff"/>
    </linearGradient>
    <linearGradient id="edge" x1="185" y1="120" x2="1000" y2="685" gradientUnits="userSpaceOnUse">
      <stop stop-color="#657889" stop-opacity="0.48"/>
      <stop offset="0.3" stop-color="#ffffff" stop-opacity="0.95"/>
      <stop offset="0.62" stop-color="#8ea2b2" stop-opacity="0.58"/>
      <stop offset="1" stop-color="#ffffff" stop-opacity="0.85"/>
    </linearGradient>
    <filter id="softShadow" x="0" y="0" width="1200" height="760" filterUnits="userSpaceOnUse" color-interpolation-filters="sRGB">
      <feDropShadow dx="0" dy="22" stdDeviation="24" flood-color="#7d8d9a" flood-opacity="0.18"/>
      <feDropShadow dx="0" dy="5" stdDeviation="8" flood-color="#50606d" flood-opacity="0.10"/>
    </filter>
    <filter id="glow" x="0" y="0" width="1200" height="760" filterUnits="userSpaceOnUse" color-interpolation-filters="sRGB">
      <feGaussianBlur stdDeviation="2.2" result="blur"/>
      <feColorMatrix in="blur" type="matrix" values="1 0 0 0 0.72  0 1 0 0 0.82  0 0 1 0 0.92  0 0 0 0.55 0" result="colored"/>
      <feMerge><feMergeNode in="colored"/><feMergeNode in="SourceGraphic"/></feMerge>
    </filter>
    <style>
      .tube{stroke:url(#g1);stroke-width:22;stroke-linecap:round;stroke-linejoin:round;filter:url(#softShadow)}
      .edge{stroke:url(#edge);stroke-width:3.2;stroke-linecap:round;stroke-linejoin:round;filter:url(#glow)}
      .inner{stroke:#ffffff;stroke-width:7;stroke-linecap:round;stroke-linejoin:round;opacity:.92}
      .shade{stroke:#7c91a3;stroke-width:2.2;stroke-linecap:round;stroke-linejoin:round;opacity:.36}
    </style>
  </defs>
  <rect width="1200" height="760" fill="white" fill-opacity="0"/>
  <ellipse cx="602" cy="634" rx="365" ry="52" fill="#93A4B2" opacity="0.09"/>
  <g opacity="0.98">
    <!-- abstract MAP monogram, built as transparent crystal tubes -->
    <path class="tube" d="M237 560V235L372 354L504 235V560"/>
    <path class="edge" d="M237 560V235L372 354L504 235V560"/>
    <path class="inner" d="M270 534V303L372 393L472 303V534"/>
    <path class="shade" d="M252 246L372 354L491 246"/>

    <path class="tube" d="M565 560V232H806C887 232 934 284 934 354C934 426 887 479 806 479H652"/>
    <path class="edge" d="M565 560V232H806C887 232 934 284 934 354C934 426 887 479 806 479H652"/>
    <path class="inner" d="M603 531V269H793C846 269 891 304 891 354C891 405 846 442 793 442H652"/>
    <path class="shade" d="M602 252H805C871 252 913 294 913 354"/>

    <path class="tube" d="M160 194H1040"/>
    <path class="edge" d="M160 194H1040"/>
    <path class="inner" d="M198 171H1002" opacity=".72"/>
    <path class="shade" d="M188 214H1015"/>

    <path class="tube" d="M372 114H675"/>
    <path class="edge" d="M372 114H675"/>
    <path class="inner" d="M400 93H650" opacity=".72"/>

    <path class="tube" d="M706 114H885"/>
    <path class="edge" d="M706 114H885"/>
    <path class="inner" d="M728 94H862" opacity=".72"/>

    <path class="tube" d="M1038 194V560"/>
    <path class="edge" d="M1038 194V560"/>
    <path class="inner" d="M1006 224V531" opacity=".72"/>
  </g>
  <g opacity="0.58">
    <path d="M210 645C392 585 502 590 648 636C795 681 906 681 1032 636" stroke="#DDE5EA" stroke-width="2"/>
    <path d="M170 690C357 631 503 639 681 677C833 710 949 709 1077 665" stroke="#EEF3F6" stroke-width="2"/>
  </g>
</svg>
